<svg id="Layer_1" data-name="Layer 1" xmlns="http://www.w3.org/2000/svg" xmlns:xlink="http://www.w3.org/1999/xlink" viewBox="0 0 457.39 457.39"><defs><style>.cls-1{fill:url(#linear-gradient);}.cls-2{fill:#e2b083;}.cls-3{fill:#d09173;}.cls-4{fill:#e0a47f;}.cls-14,.cls-5,.cls-8{fill:none;stroke-linecap:round;}.cls-5{stroke:#d2a57a;stroke-width:13px;}.cls-5,.cls-8{stroke-miterlimit:10;}.cls-6{fill:#d2a57a;}.cls-7{fill:#2f1f0c;}.cls-8{stroke:#372614;stroke-width:12px;}.cls-9{fill:#b7906b;}.cls-10{fill:#342313;}.cls-11{fill:#d65743;}.cls-12{fill:#fff;}.cls-13{fill:#a1402f;}.cls-14{stroke:#c59b73;stroke-linejoin:round;stroke-width:6px;}.cls-15{fill:#a2abb5;}.cls-16{fill:#cb9673;}</style><linearGradient id="linear-gradient" x1="54.21" y1="348.69" x2="408.51" y2="131.53" gradientUnits="userSpaceOnUse"><stop offset="0" stop-color="#ee244e"/><stop offset="1" stop-color="#f7941d"/></linearGradient></defs><path class="cls-1" d="M464.23,237.55a228.7,228.7,0,1,1-457.39,0C6.84,111.25,109.23,8.86,235.53,8.86S464.23,111.25,464.23,237.55Z" transform="translate(-6.84 -8.86)"/><g id="ears"><g id="left_ear" data-name="left ear"><ellipse class="cls-2" cx="136.45" cy="181.51" rx="20.4" ry="18.54"/><ellipse class="cls-3" cx="136.45" cy="181.51" rx="15.75" ry="14.31"/></g><g id="right_ear" data-name="right ear"><ellipse class="cls-2" cx="320.93" cy="181.51" rx="20.4" ry="18.54"/><ellipse class="cls-3" cx="320.93" cy="181.51" rx="15.75" ry="14.31"/></g></g><rect class="cls-4" x="185.86" y="268.44" width="85.67" height="90.37"/><path id="Face_base" data-name="Face base" class="cls-2" d="M146.87,88.29H310.52a8.77,8.77,0,0,1,8.77,8.77V227.57a90.59,90.59,0,0,1-90.59,90.59h0a90.59,90.59,0,0,1-90.59-90.59V97.05a8.77,8.77,0,0,1,8.77-8.77Z"/><path id="Face_base-2" data-name="Face base" class="cls-5" d="M319.12,234.77c0,48.44-37.42,87.71-83.58,87.71h0c-46.17,0-83.59-39.27-83.59-87.71" transform="translate(-6.84 -8.86)"/><path class="cls-6" d="M138.1,124.75H319.28a0,0,0,0,1,0,0v18.89a0,0,0,0,1,0,0H153.23a15.13,15.13,0,0,1-15.13-15.13v-3.77A0,0,0,0,1,138.1,124.75Z"/><g id="Hair"><path class="cls-7" d="M112.84,64.68H276.93a54.2,54.2,0,0,1,54.2,54.2v0a13.82,13.82,0,0,1-13.82,13.82H165.85a60,60,0,0,1-60-60V71.66a7,7,0,0,1,7-7Z"/><path class="cls-8" d="M258.36,85.83s60.18-3.3,62.1,38.66" transform="translate(-6.84 -8.86)"/></g><g id="Eyes"><circle id="Left_eye" data-name="Left eye" class="cls-7" cx="190.1" cy="187" r="11.39"/><circle id="Right_eye" data-name="Right eye" class="cls-7" cx="270.6" cy="187" r="11.39"/><rect class="cls-9" x="164.15" y="164.93" width="38.85" height="7.77" rx="2.39"/><rect class="cls-9" x="254.74" y="164.93" width="38.85" height="7.77" rx="2.39"/><g id="Left_brow" data-name="Left brow"><rect class="cls-7" x="163.44" y="156.66" width="39.56" height="12.63" rx="4.51"/><rect class="cls-10" x="177.87" y="159.41" width="21.26" height="5.52" rx="2.76"/></g><g id="Right_brow" data-name="Right brow"><rect class="cls-7" x="261.23" y="165.51" width="39.56" height="12.63" rx="4.51" transform="translate(555.17 334.8) rotate(180)"/><rect class="cls-10" x="265.11" y="168.27" width="21.26" height="5.52" rx="2.76" transform="translate(544.62 333.2) rotate(180)"/></g></g><g id="mouth"><path class="cls-11" d="M283.56,257.24a33.31,33.31,0,0,1-10.73,24.27l-.34.32A39.39,39.39,0,0,1,245.78,292H225.3a39.33,39.33,0,0,1-27.05-10.49,33.31,33.31,0,0,1-10.73-24.27,1.15,1.15,0,0,1,1.2-1.1h93.63A1.16,1.16,0,0,1,283.56,257.24Z" transform="translate(-6.84 -8.86)"/><path class="cls-12" d="M199,247.28H258.4a0,0,0,0,1,0,0v3.5a7.91,7.91,0,0,1-7.91,7.91H206.9a7.91,7.91,0,0,1-7.91-7.91v-3.5A0,0,0,0,1,199,247.28Z"/><path class="cls-12" d="M272.27,281.59l-.34.35A37.67,37.67,0,0,1,245.22,293H224.74a37.64,37.64,0,0,1-27.05-11.41Z" transform="translate(-6.84 -8.86)"/><rect class="cls-13" x="210.22" y="258.69" width="36.94" height="14.05" rx="5.71"/></g><path class="cls-14" d="M253.84,220.15a18.31,18.31,0,0,1-36.61,0" transform="translate(-6.84 -8.86)"/><path class="cls-15" d="M377,406.1v11.13a228.72,228.72,0,0,1-283,0V406.1a47.54,47.54,0,0,1,47.54-47.53H329.5A47.53,47.53,0,0,1,377,406.1Z" transform="translate(-6.84 -8.86)"/><path class="cls-16" d="M278.37,357.56c0,10-19.17,18-42.83,18s-42.84-8.06-42.84-18Z" transform="translate(-6.84 -8.86)"/></svg>