<svg xmlns="http://www.w3.org/2000/svg" xmlns:xlink="http://www.w3.org/1999/xlink" viewBox="0 0 255.57 255.57"><defs><style>.cls-1,.cls-3,.cls-4,.cls-5{fill:none;stroke-width:13px;}.cls-1{stroke-miterlimit:10;stroke:url(#linear-gradient);}.cls-2{fill:url(#linear-gradient-2);}.cls-3,.cls-4,.cls-5{stroke-linecap:round;stroke-linejoin:round;}.cls-3{stroke:url(#linear-gradient-3);}.cls-4{stroke:url(#linear-gradient-4);}.cls-5{stroke:url(#linear-gradient-5);}</style><linearGradient id="linear-gradient" x1="22.21" y1="131.87" x2="233.36" y2="131.87" gradientUnits="userSpaceOnUse"><stop offset="0" stop-color="#ee244e"/><stop offset="1" stop-color="#f7941d"/></linearGradient><linearGradient id="linear-gradient-2" x1="32.37" y1="65.29" x2="223.2" y2="65.29" xlink:href="#linear-gradient"/><linearGradient id="linear-gradient-3" x1="74.64" y1="177.2" x2="74.64" y2="107.29" xlink:href="#linear-gradient"/><linearGradient id="linear-gradient-4" x1="95.32" y1="108.77" x2="95.32" y2="38.86" gradientTransform="translate(274.86 216.06) rotate(180)" xlink:href="#linear-gradient"/><linearGradient id="linear-gradient-5" x1="128.28" y1="96.06" x2="128.28" y2="190.3" xlink:href="#linear-gradient"/></defs><g id="Layer_2" data-name="Layer 2"><rect class="cls-1" x="28.71" y="45.04" width="198.15" height="173.68" rx="34.4"/><path class="cls-2" d="M53.61,45H202A21.24,21.24,0,0,1,223.2,66.27V85.53a0,0,0,0,1,0,0H32.37a0,0,0,0,1,0,0V66.27A21.24,21.24,0,0,1,53.61,45Z"/><polyline class="cls-3" points="88.35 170.7 60.93 142.25 88.35 113.79"/><polyline class="cls-4" points="165.83 113.79 193.24 142.25 165.83 170.7"/><line class="cls-5" x1="114.63" y1="183.8" x2="141.93" y2="102.56"/></g></svg>