<svg xmlns="http://www.w3.org/2000/svg" xmlns:xlink="http://www.w3.org/1999/xlink" viewBox="0 0 255.57 255.57"><defs><style>.cls-1{fill:url(#linear-gradient);}.cls-2{fill:#fff;}</style><linearGradient id="linear-gradient" x1="25.59" y1="127.19" x2="229.98" y2="127.19" gradientUnits="userSpaceOnUse"><stop offset="0" stop-color="#ee244e"/><stop offset="1" stop-color="#f7941d"/></linearGradient></defs><g id="Layer_2" data-name="Layer 2"><rect class="cls-1" x="25.59" y="22.46" width="204.39" height="209.45" rx="50.6"/><path class="cls-2" d="M135,53.72a5.49,5.49,0,0,0-3.6-1.35h-7.25a5.45,5.45,0,0,0-3.6,1.35L44.15,120.4a5.48,5.48,0,0,0-1.61,5.84h0A5.48,5.48,0,0,0,47.75,130H58.31a5.47,5.47,0,0,1,5.47,5.47v53.05A13.49,13.49,0,0,0,77.26,202h21a13.48,13.48,0,0,0,13.47-13.48V151.48a5.48,5.48,0,0,1,5.48-5.47h21a5.47,5.47,0,0,1,5.47,5.47v37.05A13.49,13.49,0,0,0,157.26,202h21.05a13.48,13.48,0,0,0,13.47-13.48V135.48a5.48,5.48,0,0,1,5.48-5.47h10.56a5.47,5.47,0,0,0,5.2-3.77h0a5.47,5.47,0,0,0-1.6-5.84Z"/></g></svg>