<svg xmlns="http://www.w3.org/2000/svg" xmlns:xlink="http://www.w3.org/1999/xlink" viewBox="0 0 255.57 255.57"><defs><style>.cls-1,.cls-2,.cls-3,.cls-4,.cls-5,.cls-6,.cls-7{fill:none;stroke-linecap:round;stroke-linejoin:round;stroke-width:13px;}.cls-1{stroke:url(#linear-gradient);}.cls-2{stroke:url(#linear-gradient-2);}.cls-3{stroke:url(#linear-gradient-3);}.cls-4{stroke:url(#linear-gradient-4);}.cls-5{stroke:url(#linear-gradient-5);}.cls-6{stroke:url(#linear-gradient-6);}.cls-7{stroke:url(#linear-gradient-7);}</style><linearGradient id="linear-gradient" x1="96.78" y1="200.85" x2="52.49" y2="164.04" gradientUnits="userSpaceOnUse"><stop offset="0" stop-color="#ee244e"/><stop offset="1" stop-color="#f7941d"/></linearGradient><linearGradient id="linear-gradient-2" x1="209.23" y1="93.98" x2="158.86" y2="52.12" xlink:href="#linear-gradient"/><linearGradient id="linear-gradient-3" x1="95.39" y1="68.65" x2="83.53" y2="58.79" xlink:href="#linear-gradient"/><linearGradient id="linear-gradient-4" x1="120.93" y1="111.45" x2="39.32" y2="43.63" xlink:href="#linear-gradient"/><linearGradient id="linear-gradient-5" x1="196.96" y1="170.76" x2="184.93" y2="160.76" xlink:href="#linear-gradient"/><linearGradient id="linear-gradient-6" x1="218.23" y1="208.94" x2="138.85" y2="142.96" xlink:href="#linear-gradient"/><linearGradient id="linear-gradient-7" x1="147.38" y1="169.95" x2="85.19" y2="118.26" gradientTransform="matrix(0.99, 0.01, 0.01, 0.99, 6.82, -6.82)" xlink:href="#linear-gradient"/></defs><g id="Layer_2" data-name="Layer 2"><path class="cls-1" d="M89.1,199.93s-13.46-31.67-31.67-31.67"/><line class="cls-2" x1="165.41" y1="54.42" x2="202.69" y2="91.69"/><line class="cls-3" x1="80.13" y1="73.05" x2="98.8" y2="54.39"/><polyline class="cls-4" points="89.72 130.11 27.57 67.95 70.54 24.97 132.69 87.13"/><line class="cls-5" x1="180.75" y1="175.95" x2="201.14" y2="155.57"/><polyline class="cls-6" points="169.98 124.4 230.08 184.52 187.1 227.5 127 167.38"/><path class="cls-7" d="M215.31,41.79a26.2,26.2,0,0,0-37.06-.21h0L62.12,157.71h0L44.84,193.63,27.56,229.54l35.91-17.28L99.38,195h0L215.52,78.85A26.2,26.2,0,0,0,215.31,41.79Z"/></g></svg>