<svg xmlns="http://www.w3.org/2000/svg" xmlns:xlink="http://www.w3.org/1999/xlink" viewBox="0 0 255.57 255.57"><defs><style>.cls-1,.cls-10,.cls-2,.cls-3,.cls-4,.cls-5,.cls-6,.cls-7,.cls-8,.cls-9{fill:none;stroke-miterlimit:10;stroke-width:13px;}.cls-1{stroke:url(#linear-gradient);}.cls-10,.cls-2,.cls-4,.cls-5,.cls-6,.cls-7,.cls-8,.cls-9{stroke-linecap:round;}.cls-2{stroke:url(#linear-gradient-2);}.cls-3{stroke:url(#linear-gradient-3);}.cls-4{stroke:url(#linear-gradient-4);}.cls-5{stroke:url(#linear-gradient-5);}.cls-6{stroke:url(#linear-gradient-6);}.cls-7{stroke:url(#linear-gradient-7);}.cls-8{stroke:url(#linear-gradient-8);}.cls-9{stroke:url(#linear-gradient-9);}.cls-10{stroke:url(#linear-gradient-10);}</style><linearGradient id="linear-gradient" x1="105.82" y1="193.61" x2="153.01" y2="193.61" gradientUnits="userSpaceOnUse"><stop offset="0" stop-color="#ee244e"/><stop offset="1" stop-color="#f7941d"/></linearGradient><linearGradient id="linear-gradient-2" x1="120.11" y1="212.5" x2="159.51" y2="212.5" xlink:href="#linear-gradient"/><linearGradient id="linear-gradient-3" x1="58.3" y1="145.56" x2="198.92" y2="145.56" xlink:href="#linear-gradient"/><linearGradient id="linear-gradient-4" x1="182.06" y1="184.71" x2="212.87" y2="184.71" xlink:href="#linear-gradient"/><linearGradient id="linear-gradient-5" x1="204.76" y1="119.26" x2="244.62" y2="119.26" xlink:href="#linear-gradient"/><linearGradient id="linear-gradient-6" x1="179.29" y1="50.95" x2="214.48" y2="50.95" xlink:href="#linear-gradient"/><linearGradient id="linear-gradient-7" x1="122.92" y1="26.23" x2="135.92" y2="26.23" xlink:href="#linear-gradient"/><linearGradient id="linear-gradient-8" x1="41.62" y1="50.95" x2="76.81" y2="50.95" xlink:href="#linear-gradient"/><linearGradient id="linear-gradient-9" x1="7.93" y1="119.26" x2="52.46" y2="119.26" xlink:href="#linear-gradient"/><linearGradient id="linear-gradient-10" x1="41.62" y1="188.92" x2="76.81" y2="188.92" xlink:href="#linear-gradient"/></defs><g id="Layer_2" data-name="Layer 2"><line class="cls-1" x1="105.82" y1="193.61" x2="153.01" y2="193.61"/><line class="cls-2" x1="126.61" y1="212.49" x2="153.01" y2="212.52"/><path class="cls-3" d="M192.42,119.67A63.81,63.81,0,1,0,97,175.09a17.24,17.24,0,0,1,8.82,14.9v22.53a22.75,22.75,0,0,0,22.75,22.74h1.7A22.74,22.74,0,0,0,153,212.52V189.05a17,17,0,0,1,8.27-14.57A63.76,63.76,0,0,0,192.42,119.67Z"/><line class="cls-4" x1="188.56" y1="175.8" x2="206.37" y2="193.61"/><line class="cls-5" x1="211.26" y1="119.26" x2="238.12" y2="119.26"/><line class="cls-6" x1="185.79" y1="62.04" x2="207.98" y2="39.85"/><line class="cls-7" x1="129.42" y1="39.85" x2="129.42" y2="12.6"/><line class="cls-8" x1="70.31" y1="62.04" x2="48.12" y2="39.85"/><line class="cls-9" x1="45.96" y1="119.26" x2="14.43" y2="119.26"/><line class="cls-10" x1="48.12" y1="200.21" x2="70.31" y2="177.63"/></g></svg>