<svg xmlns="http://www.w3.org/2000/svg" xmlns:xlink="http://www.w3.org/1999/xlink" viewBox="0 0 255.57 255.57"><defs><style>.cls-1{fill:url(#linear-gradient);}.cls-2{fill:#fff;}</style><linearGradient id="linear-gradient" x1="26.43" y1="124.82" x2="230.82" y2="124.82" gradientUnits="userSpaceOnUse"><stop offset="0" stop-color="#ee244e"/><stop offset="1" stop-color="#f7941d"/></linearGradient></defs><g id="Layer_2" data-name="Layer 2"><rect class="cls-1" x="26.43" y="20.09" width="204.39" height="209.45" rx="50.6"/><circle class="cls-2" cx="127.94" cy="95.4" r="39.88"/><path class="cls-2" d="M200.69,187.8a6.3,6.3,0,0,1-6.27,6.31H62.83a6.28,6.28,0,0,1-6.27-6.27,33.77,33.77,0,0,1,33.76-33.77h0a11.37,11.37,0,0,1,8.37,3.56c7.28,7.86,17.69,8.21,29.25,8.21s22-.35,29.25-8.21a11.37,11.37,0,0,1,8.37-3.56h1.36a33.77,33.77,0,0,1,33.77,33.73Z"/></g></svg>