<svg xmlns="http://www.w3.org/2000/svg" xmlns:xlink="http://www.w3.org/1999/xlink" viewBox="0 0 255.57 255.57"><defs><style>.cls-1,.cls-2{fill:none;stroke-miterlimit:10;stroke-width:13px;}.cls-1{stroke:url(#linear-gradient);}.cls-2{stroke:url(#linear-gradient-2);}</style><linearGradient id="linear-gradient" x1="65.26" y1="83.58" x2="190.07" y2="83.58" gradientUnits="userSpaceOnUse"><stop offset="0" stop-color="#ee244e"/><stop offset="1" stop-color="#f7941d"/></linearGradient><linearGradient id="linear-gradient-2" x1="21.1" y1="193.89" x2="236.16" y2="193.89" xlink:href="#linear-gradient"/></defs><g id="Layer_2" data-name="Layer 2"><circle class="cls-1" cx="127.67" cy="83.58" r="55.9"/><path class="cls-2" d="M229.66,213.11a8.83,8.83,0,0,1-8.79,8.85H36.39a8.79,8.79,0,0,1-8.79-8.79,47.34,47.34,0,0,1,47.32-47.35h0a15.93,15.93,0,0,1,11.73,5c10.21,11,24.81,11.5,41,11.5s30.81-.48,41-11.5a15.93,15.93,0,0,1,11.73-5h1.9a47.36,47.36,0,0,1,47.35,47.29Z"/></g></svg>